<svg xmlns="http://www.w3.org/2000/svg" width="760" height="340" viewBox="0 0 760 340"><rect width="760" height="340" fill="#f8f6f0"/><text x="24" y="28" font-family="Arial" font-size="18" fill="#222">v34_clear_orange_tabby_v34_character_asset_v34_route_a2_pack Route A2 contact sheet</text><g><rect x="24" y="48" width="140" height="92" rx="8" fill="#f4a261" opacity="0.92"/><circle cx="94" cy="86" r="24" fill="#fff7e6"/><path d="M70 76 l12 -18 l10 20" fill="#fff7e6"/><path d="M106 76 l12 -18 l10 20" fill="#fff7e6"/><path d="M70 114 q20 11 48 0" stroke="#2f2f2f" stroke-width="4" fill="none"/><text x="24" y="164" font-family="Arial" font-size="14" fill="#222">idle -> idle</text></g><g><rect x="204" y="48" width="140" height="92" rx="8" fill="#8ecae6" opacity="0.92"/><circle cx="274" cy="86" r="24" fill="#fff7e6"/><path d="M250 76 l12 -18 l10 20" fill="#fff7e6"/><path d="M286 76 l12 -18 l10 20" fill="#fff7e6"/><path d="M250 114 q22 36 48 0" stroke="#2f2f2f" stroke-width="4" fill="none"/><text x="204" y="164" font-family="Arial" font-size="14" fill="#222">walk -> running</text></g><g><rect x="384" y="48" width="140" height="92" rx="8" fill="#e76f51" opacity="0.92"/><circle cx="454" cy="86" r="24" fill="#fff7e6"/><path d="M430 76 l12 -18 l10 20" fill="#fff7e6"/><path d="M466 76 l12 -18 l10 20" fill="#fff7e6"/><path d="M430 114 q24 36 48 0" stroke="#2f2f2f" stroke-width="4" fill="none"/><text x="384" y="164" font-family="Arial" font-size="14" fill="#222">jump -> success</text></g><g><rect x="564" y="48" width="140" height="92" rx="8" fill="#90be6d" opacity="0.92"/><circle cx="634" cy="86" r="24" fill="#fff7e6"/><path d="M610 76 l12 -18 l10 20" fill="#fff7e6"/><path d="M646 76 l12 -18 l10 20" fill="#fff7e6"/><path d="M610 114 q26 11 48 0" stroke="#2f2f2f" stroke-width="4" fill="none"/><text x="564" y="164" font-family="Arial" font-size="14" fill="#222">sleep -> sleeping</text></g><g><rect x="24" y="176" width="140" height="92" rx="8" fill="#f4a261" opacity="0.92"/><circle cx="94" cy="214" r="24" fill="#fff7e6"/><path d="M70 204 l12 -18 l10 20" fill="#fff7e6"/><path d="M106 204 l12 -18 l10 20" fill="#fff7e6"/><path d="M70 242 q28 36 48 0" stroke="#2f2f2f" stroke-width="4" fill="none"/><text x="24" y="292" font-family="Arial" font-size="14" fill="#222">eat -> need_input</text></g><g><rect x="204" y="176" width="140" height="92" rx="8" fill="#8ecae6" opacity="0.92"/><circle cx="274" cy="214" r="24" fill="#fff7e6"/><path d="M250 204 l12 -18 l10 20" fill="#fff7e6"/><path d="M286 204 l12 -18 l10 20" fill="#fff7e6"/><path d="M250 242 q30 36 48 0" stroke="#2f2f2f" stroke-width="4" fill="none"/><text x="204" y="292" font-family="Arial" font-size="14" fill="#222">play -> thinking</text></g><g><rect x="384" y="176" width="140" height="92" rx="8" fill="#e76f51" opacity="0.92"/><circle cx="454" cy="214" r="24" fill="#fff7e6"/><path d="M430 204 l12 -18 l10 20" fill="#fff7e6"/><path d="M466 204 l12 -18 l10 20" fill="#fff7e6"/><path d="M430 242 q32 36 48 0" stroke="#2f2f2f" stroke-width="4" fill="none"/><text x="384" y="292" font-family="Arial" font-size="14" fill="#222">alert -> warning</text></g><g><rect x="564" y="176" width="140" height="92" rx="8" fill="#90be6d" opacity="0.92"/><circle cx="634" cy="214" r="24" fill="#fff7e6"/><path d="M610 204 l12 -18 l10 20" fill="#fff7e6"/><path d="M646 204 l12 -18 l10 20" fill="#fff7e6"/><path d="M610 242 q34 36 48 0" stroke="#2f2f2f" stroke-width="4" fill="none"/><text x="564" y="292" font-family="Arial" font-size="14" fill="#222">celebrate -> error</text></g></svg>