<svg xmlns="http://www.w3.org/2000/svg" viewBox="0 0 256 256" role="img" aria-label="V39 play characterized cat frame">
  <rect width="256" height="256" rx="22" fill="#f8fafc"/>
  <ellipse cx="128" cy="211" rx="62" ry="12" fill="#263238" opacity=".16"/>
  <g transform="translate(0 0) rotate(2.703204087277988 128 152)">
    <path d="M186 141 C218 133.73153471420076 220 174.26846528579924 184 168" fill="none" stroke="#242426" stroke-width="18" stroke-linecap="round"/>
    <path d="M187 141 C219 133.73153471420076 221 174.26846528579924 185 168" fill="none" stroke="#111111" stroke-width="5" stroke-linecap="round" opacity=".75"/>
    <ellipse cx="126" cy="152" rx="62" ry="47" fill="#242426" stroke="#111111" stroke-width="5"/>
    <path d="M91 125 q38 34 76 0 v52 q-39 28 -76 0z" fill="#f2eadc" opacity=".95"/>
    <g transform="translate(8.65025307928956 -16.32512653964478) rotate(12.97537961893434 108 178)">
      <ellipse cx="108" cy="178" rx="13" ry="24" fill="#242426" stroke="#111111" stroke-width="4"/>
    </g>
    <g transform="translate(-8.65025307928956 0) rotate(-12.97537961893434 151 181)">
      <ellipse cx="151" cy="181" rx="15" ry="23" fill="#242426" stroke="#111111" stroke-width="4"/>
    </g>
  </g>
  <g transform="translate(2.703204087277988 0) rotate(0 126 91)">
    <path d="M94 63 L105 22 L123 65 Z" fill="#242426" stroke="#111111" stroke-width="5"/>
    <path d="M150 64 L171 24 L173 71 Z" fill="#242426" stroke="#111111" stroke-width="5"/>
    <circle cx="126" cy="91" r="42" fill="#242426" stroke="#111111" stroke-width="5"/>
    <ellipse cx="128" cy="110" rx="23" ry="15" fill="#f2eadc" opacity=".92"/>
    <ellipse cx="116" cy="88" rx="5" ry="6" fill="#d8c15a"/><ellipse cx="145" cy="88" rx="5" ry="6" fill="#d8c15a"/>
    <path d="M127 100 l-6 6 h12z" fill="#111111"/>
    <path d="M121 113 q8 7 16 0" stroke="#111111" stroke-width="3" fill="none" stroke-linecap="round"/>
  </g>
  <circle cx="58" cy="171" r="13" fill="#f2eadc" opacity=".85"/>
</svg>