<svg xmlns="http://www.w3.org/2000/svg" viewBox="0 0 256 256" role="img" aria-label="V39 celebrate characterized cat frame">
  <rect width="256" height="256" rx="22" fill="#f8fafc"/>
  <ellipse cx="128" cy="211" rx="62" ry="12" fill="#263238" opacity=".16"/>
  <g transform="translate(0 -3.471069912940466) rotate(0 128 152)">
    <path d="M186 141 C218 131.80990730411605 220 176.19009269588395 184 168" fill="none" stroke="#d8893d" stroke-width="18" stroke-linecap="round"/>
    <path d="M187 141 C219 131.80990730411605 221 176.19009269588395 185 168" fill="none" stroke="#4a2a17" stroke-width="5" stroke-linecap="round" opacity=".75"/>
    <ellipse cx="126" cy="152" rx="62" ry="47" fill="#d8893d" stroke="#4a2a17" stroke-width="5"/>
    <path d="M100 86 q22 12 46 0" stroke="#8b4a24" stroke-width="5" fill="none" opacity=".55"/>
       <path d="M89 137 q36 18 75 0" stroke="#8b4a24" stroke-width="7" fill="none" opacity=".45"/>
    <g transform="translate(0 -21.735534956470232) rotate(7.809907304116048 108 178)">
      <ellipse cx="108" cy="178" rx="13" ry="24" fill="#d8893d" stroke="#4a2a17" stroke-width="4"/>
    </g>
    <g transform="translate(0 0) rotate(-7.809907304116048 151 181)">
      <ellipse cx="151" cy="181" rx="15" ry="23" fill="#d8893d" stroke="#4a2a17" stroke-width="4"/>
    </g>
  </g>
  <g transform="translate(0 -6) rotate(0 126 91)">
    <path d="M94 63 L105 22 L123 65 Z" fill="#d8893d" stroke="#4a2a17" stroke-width="5"/>
    <path d="M150 64 L171 24 L173 71 Z" fill="#d8893d" stroke="#4a2a17" stroke-width="5"/>
    <circle cx="126" cy="91" r="42" fill="#d8893d" stroke="#4a2a17" stroke-width="5"/>
    <ellipse cx="128" cy="110" rx="23" ry="15" fill="#8b4a24" opacity=".92"/>
    <ellipse cx="116" cy="88" rx="5" ry="7" fill="#5f7f35"/><ellipse cx="145" cy="88" rx="5" ry="7" fill="#5f7f35"/>
    <path d="M127 100 l-6 6 h12z" fill="#4a2a17"/>
    <path d="M121 113 q8 7 16 0" stroke="#4a2a17" stroke-width="3" fill="none" stroke-linecap="round"/>
  </g>
  <path d="M62 64 l9 18 l20 3 l-14 14 l3 20 l-18 -9 l-18 9 l3 -20 l-14 -14 l20 -3z" fill="#8b4a24" opacity=".9"/>
</svg>