<svg xmlns="http://www.w3.org/2000/svg" viewBox="0 0 256 256" role="img" aria-label="V39 animated preview">
  <style>
    .frame { opacity: 0; animation: flip 1.2s steps(1,end) infinite; }
    .frame-0 { animation-delay: -1.20s; }
.frame-1 { animation-delay: -1.05s; }
.frame-2 { animation-delay: -0.90s; }
.frame-3 { animation-delay: -0.75s; }
.frame-4 { animation-delay: -0.60s; }
.frame-5 { animation-delay: -0.45s; }
.frame-6 { animation-delay: -0.30s; }
.frame-7 { animation-delay: -0.15s; }
    @keyframes flip { 0%, 12.4% { opacity: 1; } 12.5%, 100% { opacity: 0; } }
  </style>
  
    <g class="frame frame-0">
  <rect width="256" height="256" rx="22" fill="#f8fafc"/>
  <ellipse cx="128" cy="211" rx="62" ry="12" fill="#263238" opacity=".16"/>
  <g transform="translate(0 0) rotate(0 128 152)">
    <path d="M186 141 C218 124 220 184 184 168" fill="none" stroke="#d8893d" stroke-width="18" stroke-linecap="round"/>
    <path d="M187 141 C219 124 221 184 185 168" fill="none" stroke="#4a2a17" stroke-width="5" stroke-linecap="round" opacity=".75"/>
    <ellipse cx="126" cy="152" rx="62" ry="47" fill="#d8893d" stroke="#4a2a17" stroke-width="5"/>
    <path d="M100 86 q22 12 46 0" stroke="#8b4a24" stroke-width="5" fill="none" opacity=".55"/>
       <path d="M89 137 q36 18 75 0" stroke="#8b4a24" stroke-width="7" fill="none" opacity=".45"/>
    <g transform="translate(0 -12) rotate(0 108 178)">
      <ellipse cx="108" cy="178" rx="13" ry="24" fill="#d8893d" stroke="#4a2a17" stroke-width="4"/>
    </g>
    <g transform="translate(0 0) rotate(0 151 181)">
      <ellipse cx="151" cy="181" rx="15" ry="23" fill="#d8893d" stroke="#4a2a17" stroke-width="4"/>
    </g>
  </g>
  <g transform="translate(0 0) rotate(0 126 91)">
    <path d="M94 63 L105 22 L123 65 Z" fill="#d8893d" stroke="#4a2a17" stroke-width="5"/>
    <path d="M150 64 L171 24 L173 71 Z" fill="#d8893d" stroke="#4a2a17" stroke-width="5"/>
    <circle cx="126" cy="91" r="42" fill="#d8893d" stroke="#4a2a17" stroke-width="5"/>
    <ellipse cx="128" cy="110" rx="23" ry="15" fill="#8b4a24" opacity=".92"/>
    <ellipse cx="116" cy="88" rx="5" ry="6" fill="#5f7f35"/><ellipse cx="145" cy="88" rx="5" ry="6" fill="#5f7f35"/>
    <path d="M127 100 l-6 6 h12z" fill="#4a2a17"/>
    <path d="M121 113 q8 7 16 0" stroke="#4a2a17" stroke-width="3" fill="none" stroke-linecap="round"/>
  </g>
  <circle cx="58" cy="171" r="13" fill="#8b4a24" opacity=".85"/>
</g>
  
    <g class="frame frame-1">
  <rect width="256" height="256" rx="22" fill="#f8fafc"/>
  <ellipse cx="128" cy="211" rx="62" ry="12" fill="#263238" opacity=".16"/>
  <g transform="translate(0 0) rotate(2.703204087277988 128 152)">
    <path d="M186 141 C218 133.73153471420076 220 174.26846528579924 184 168" fill="none" stroke="#d8893d" stroke-width="18" stroke-linecap="round"/>
    <path d="M187 141 C219 133.73153471420076 221 174.26846528579924 185 168" fill="none" stroke="#4a2a17" stroke-width="5" stroke-linecap="round" opacity=".75"/>
    <ellipse cx="126" cy="152" rx="62" ry="47" fill="#d8893d" stroke="#4a2a17" stroke-width="5"/>
    <path d="M100 86 q22 12 46 0" stroke="#8b4a24" stroke-width="5" fill="none" opacity=".55"/>
       <path d="M89 137 q36 18 75 0" stroke="#8b4a24" stroke-width="7" fill="none" opacity=".45"/>
    <g transform="translate(8.65025307928956 -16.32512653964478) rotate(12.97537961893434 108 178)">
      <ellipse cx="108" cy="178" rx="13" ry="24" fill="#d8893d" stroke="#4a2a17" stroke-width="4"/>
    </g>
    <g transform="translate(-8.65025307928956 0) rotate(-12.97537961893434 151 181)">
      <ellipse cx="151" cy="181" rx="15" ry="23" fill="#d8893d" stroke="#4a2a17" stroke-width="4"/>
    </g>
  </g>
  <g transform="translate(2.703204087277988 0) rotate(0 126 91)">
    <path d="M94 63 L105 22 L123 65 Z" fill="#d8893d" stroke="#4a2a17" stroke-width="5"/>
    <path d="M150 64 L171 24 L173 71 Z" fill="#d8893d" stroke="#4a2a17" stroke-width="5"/>
    <circle cx="126" cy="91" r="42" fill="#d8893d" stroke="#4a2a17" stroke-width="5"/>
    <ellipse cx="128" cy="110" rx="23" ry="15" fill="#8b4a24" opacity=".92"/>
    <ellipse cx="116" cy="88" rx="5" ry="6" fill="#5f7f35"/><ellipse cx="145" cy="88" rx="5" ry="6" fill="#5f7f35"/>
    <path d="M127 100 l-6 6 h12z" fill="#4a2a17"/>
    <path d="M121 113 q8 7 16 0" stroke="#4a2a17" stroke-width="3" fill="none" stroke-linecap="round"/>
  </g>
  <circle cx="58" cy="171" r="13" fill="#8b4a24" opacity=".85"/>
</g>
  
    <g class="frame frame-2">
  <rect width="256" height="256" rx="22" fill="#f8fafc"/>
  <ellipse cx="128" cy="211" rx="62" ry="12" fill="#263238" opacity=".16"/>
  <g transform="translate(0 0) rotate(4.548159976772592 128 152)">
    <path d="M186 141 C218 140.37337591638132 220 167.62662408361868 184 168" fill="none" stroke="#d8893d" stroke-width="18" stroke-linecap="round"/>
    <path d="M187 141 C219 140.37337591638132 221 167.62662408361868 185 168" fill="none" stroke="#4a2a17" stroke-width="5" stroke-linecap="round" opacity=".75"/>
    <ellipse cx="126" cy="152" rx="62" ry="47" fill="#d8893d" stroke="#4a2a17" stroke-width="5"/>
    <path d="M100 86 q22 12 46 0" stroke="#8b4a24" stroke-width="5" fill="none" opacity=".55"/>
       <path d="M89 137 q36 18 75 0" stroke="#8b4a24" stroke-width="7" fill="none" opacity=".45"/>
    <g transform="translate(14.554111925672293 -19.277055962836148) rotate(21.83116788850844 108 178)">
      <ellipse cx="108" cy="178" rx="13" ry="24" fill="#d8893d" stroke="#4a2a17" stroke-width="4"/>
    </g>
    <g transform="translate(-14.554111925672293 0) rotate(-21.83116788850844 151 181)">
      <ellipse cx="151" cy="181" rx="15" ry="23" fill="#d8893d" stroke="#4a2a17" stroke-width="4"/>
    </g>
  </g>
  <g transform="translate(4.548159976772592 0) rotate(0 126 91)">
    <path d="M94 63 L105 22 L123 65 Z" fill="#d8893d" stroke="#4a2a17" stroke-width="5"/>
    <path d="M150 64 L171 24 L173 71 Z" fill="#d8893d" stroke="#4a2a17" stroke-width="5"/>
    <circle cx="126" cy="91" r="42" fill="#d8893d" stroke="#4a2a17" stroke-width="5"/>
    <ellipse cx="128" cy="110" rx="23" ry="15" fill="#8b4a24" opacity=".92"/>
    <ellipse cx="116" cy="88" rx="5" ry="6" fill="#5f7f35"/><ellipse cx="145" cy="88" rx="5" ry="6" fill="#5f7f35"/>
    <path d="M127 100 l-6 6 h12z" fill="#4a2a17"/>
    <path d="M121 113 q8 7 16 0" stroke="#4a2a17" stroke-width="3" fill="none" stroke-linecap="round"/>
  </g>
  <circle cx="58" cy="171" r="13" fill="#8b4a24" opacity=".85"/>
</g>
  
    <g class="frame frame-3">
  <rect width="256" height="256" rx="22" fill="#f8fafc"/>
  <ellipse cx="128" cy="211" rx="62" ry="12" fill="#263238" opacity=".16"/>
  <g transform="translate(0 0) rotate(4.949107209404664 128 152)">
    <path d="M186 141 C218 141.8167859538568 220 166.1832140461432 184 168" fill="none" stroke="#d8893d" stroke-width="18" stroke-linecap="round"/>
    <path d="M187 141 C219 141.8167859538568 221 166.1832140461432 185 168" fill="none" stroke="#4a2a17" stroke-width="5" stroke-linecap="round" opacity=".75"/>
    <ellipse cx="126" cy="152" rx="62" ry="47" fill="#d8893d" stroke="#4a2a17" stroke-width="5"/>
    <path d="M100 86 q22 12 46 0" stroke="#8b4a24" stroke-width="5" fill="none" opacity=".55"/>
       <path d="M89 137 q36 18 75 0" stroke="#8b4a24" stroke-width="7" fill="none" opacity=".45"/>
    <g transform="translate(15.837143070094925 -19.918571535047462) rotate(23.755714605142387 108 178)">
      <ellipse cx="108" cy="178" rx="13" ry="24" fill="#d8893d" stroke="#4a2a17" stroke-width="4"/>
    </g>
    <g transform="translate(-15.837143070094925 0) rotate(-23.755714605142387 151 181)">
      <ellipse cx="151" cy="181" rx="15" ry="23" fill="#d8893d" stroke="#4a2a17" stroke-width="4"/>
    </g>
  </g>
  <g transform="translate(4.949107209404664 0) rotate(0 126 91)">
    <path d="M94 63 L105 22 L123 65 Z" fill="#d8893d" stroke="#4a2a17" stroke-width="5"/>
    <path d="M150 64 L171 24 L173 71 Z" fill="#d8893d" stroke="#4a2a17" stroke-width="5"/>
    <circle cx="126" cy="91" r="42" fill="#d8893d" stroke="#4a2a17" stroke-width="5"/>
    <ellipse cx="128" cy="110" rx="23" ry="15" fill="#8b4a24" opacity=".92"/>
    <ellipse cx="116" cy="88" rx="5" ry="6" fill="#5f7f35"/><ellipse cx="145" cy="88" rx="5" ry="6" fill="#5f7f35"/>
    <path d="M127 100 l-6 6 h12z" fill="#4a2a17"/>
    <path d="M121 113 q8 7 16 0" stroke="#4a2a17" stroke-width="3" fill="none" stroke-linecap="round"/>
  </g>
  <circle cx="58" cy="171" r="13" fill="#8b4a24" opacity=".85"/>
</g>
  
    <g class="frame frame-4">
  <rect width="256" height="256" rx="22" fill="#f8fafc"/>
  <ellipse cx="128" cy="211" rx="62" ry="12" fill="#263238" opacity=".16"/>
  <g transform="translate(0 0) rotate(3.7787478717712917 128 152)">
    <path d="M186 141 C218 137.60349233837664 220 170.39650766162336 184 168" fill="none" stroke="#d8893d" stroke-width="18" stroke-linecap="round"/>
    <path d="M187 141 C219 137.60349233837664 221 170.39650766162336 185 168" fill="none" stroke="#4a2a17" stroke-width="5" stroke-linecap="round" opacity=".75"/>
    <ellipse cx="126" cy="152" rx="62" ry="47" fill="#d8893d" stroke="#4a2a17" stroke-width="5"/>
    <path d="M100 86 q22 12 46 0" stroke="#8b4a24" stroke-width="5" fill="none" opacity=".55"/>
       <path d="M89 137 q36 18 75 0" stroke="#8b4a24" stroke-width="7" fill="none" opacity=".45"/>
    <g transform="translate(12.091993189668134 -18.045996594834065) rotate(18.137989784502203 108 178)">
      <ellipse cx="108" cy="178" rx="13" ry="24" fill="#d8893d" stroke="#4a2a17" stroke-width="4"/>
    </g>
    <g transform="translate(-12.091993189668134 0) rotate(-18.137989784502203 151 181)">
      <ellipse cx="151" cy="181" rx="15" ry="23" fill="#d8893d" stroke="#4a2a17" stroke-width="4"/>
    </g>
  </g>
  <g transform="translate(3.7787478717712917 0) rotate(0 126 91)">
    <path d="M94 63 L105 22 L123 65 Z" fill="#d8893d" stroke="#4a2a17" stroke-width="5"/>
    <path d="M150 64 L171 24 L173 71 Z" fill="#d8893d" stroke="#4a2a17" stroke-width="5"/>
    <circle cx="126" cy="91" r="42" fill="#d8893d" stroke="#4a2a17" stroke-width="5"/>
    <ellipse cx="128" cy="110" rx="23" ry="15" fill="#8b4a24" opacity=".92"/>
    <ellipse cx="116" cy="88" rx="5" ry="6" fill="#5f7f35"/><ellipse cx="145" cy="88" rx="5" ry="6" fill="#5f7f35"/>
    <path d="M127 100 l-6 6 h12z" fill="#4a2a17"/>
    <path d="M121 113 q8 7 16 0" stroke="#4a2a17" stroke-width="3" fill="none" stroke-linecap="round"/>
  </g>
  <circle cx="58" cy="171" r="13" fill="#8b4a24" opacity=".85"/>
</g>
  
    <g class="frame frame-5">
  <rect width="256" height="256" rx="22" fill="#f8fafc"/>
  <ellipse cx="128" cy="211" rx="62" ry="12" fill="#263238" opacity=".16"/>
  <g transform="translate(0 0) rotate(1.4086627842071504 128 152)">
    <path d="M186 141 C218 129.07118602314574 220 178.92881397685426 184 168" fill="none" stroke="#d8893d" stroke-width="18" stroke-linecap="round"/>
    <path d="M187 141 C219 129.07118602314574 221 178.92881397685426 185 168" fill="none" stroke="#4a2a17" stroke-width="5" stroke-linecap="round" opacity=".75"/>
    <ellipse cx="126" cy="152" rx="62" ry="47" fill="#d8893d" stroke="#4a2a17" stroke-width="5"/>
    <path d="M100 86 q22 12 46 0" stroke="#8b4a24" stroke-width="5" fill="none" opacity=".55"/>
       <path d="M89 137 q36 18 75 0" stroke="#8b4a24" stroke-width="7" fill="none" opacity=".45"/>
    <g transform="translate(4.507720909462881 -14.253860454731441) rotate(6.761581364194321 108 178)">
      <ellipse cx="108" cy="178" rx="13" ry="24" fill="#d8893d" stroke="#4a2a17" stroke-width="4"/>
    </g>
    <g transform="translate(-4.507720909462881 0) rotate(-6.761581364194321 151 181)">
      <ellipse cx="151" cy="181" rx="15" ry="23" fill="#d8893d" stroke="#4a2a17" stroke-width="4"/>
    </g>
  </g>
  <g transform="translate(1.4086627842071504 0) rotate(0 126 91)">
    <path d="M94 63 L105 22 L123 65 Z" fill="#d8893d" stroke="#4a2a17" stroke-width="5"/>
    <path d="M150 64 L171 24 L173 71 Z" fill="#d8893d" stroke="#4a2a17" stroke-width="5"/>
    <circle cx="126" cy="91" r="42" fill="#d8893d" stroke="#4a2a17" stroke-width="5"/>
    <ellipse cx="128" cy="110" rx="23" ry="15" fill="#8b4a24" opacity=".92"/>
    <ellipse cx="116" cy="88" rx="5" ry="6" fill="#5f7f35"/><ellipse cx="145" cy="88" rx="5" ry="6" fill="#5f7f35"/>
    <path d="M127 100 l-6 6 h12z" fill="#4a2a17"/>
    <path d="M121 113 q8 7 16 0" stroke="#4a2a17" stroke-width="3" fill="none" stroke-linecap="round"/>
  </g>
  <circle cx="58" cy="171" r="13" fill="#8b4a24" opacity=".85"/>
</g>
  
    <g class="frame frame-6">
  <rect width="256" height="256" rx="22" fill="#f8fafc"/>
  <ellipse cx="128" cy="211" rx="62" ry="12" fill="#263238" opacity=".16"/>
  <g transform="translate(0 0) rotate(-1.4086627842071469 128 152)">
    <path d="M186 141 C218 118.92881397685427 220 189.07118602314574 184 168" fill="none" stroke="#d8893d" stroke-width="18" stroke-linecap="round"/>
    <path d="M187 141 C219 118.92881397685427 221 189.07118602314574 185 168" fill="none" stroke="#4a2a17" stroke-width="5" stroke-linecap="round" opacity=".75"/>
    <ellipse cx="126" cy="152" rx="62" ry="47" fill="#d8893d" stroke="#4a2a17" stroke-width="5"/>
    <path d="M100 86 q22 12 46 0" stroke="#8b4a24" stroke-width="5" fill="none" opacity=".55"/>
       <path d="M89 137 q36 18 75 0" stroke="#8b4a24" stroke-width="7" fill="none" opacity=".45"/>
    <g transform="translate(-4.50772090946287 -14.253860454731434) rotate(-6.761581364194305 108 178)">
      <ellipse cx="108" cy="178" rx="13" ry="24" fill="#d8893d" stroke="#4a2a17" stroke-width="4"/>
    </g>
    <g transform="translate(4.50772090946287 0) rotate(6.761581364194305 151 181)">
      <ellipse cx="151" cy="181" rx="15" ry="23" fill="#d8893d" stroke="#4a2a17" stroke-width="4"/>
    </g>
  </g>
  <g transform="translate(-1.4086627842071469 0) rotate(0 126 91)">
    <path d="M94 63 L105 22 L123 65 Z" fill="#d8893d" stroke="#4a2a17" stroke-width="5"/>
    <path d="M150 64 L171 24 L173 71 Z" fill="#d8893d" stroke="#4a2a17" stroke-width="5"/>
    <circle cx="126" cy="91" r="42" fill="#d8893d" stroke="#4a2a17" stroke-width="5"/>
    <ellipse cx="128" cy="110" rx="23" ry="15" fill="#8b4a24" opacity=".92"/>
    <ellipse cx="116" cy="88" rx="5" ry="6" fill="#5f7f35"/><ellipse cx="145" cy="88" rx="5" ry="6" fill="#5f7f35"/>
    <path d="M127 100 l-6 6 h12z" fill="#4a2a17"/>
    <path d="M121 113 q8 7 16 0" stroke="#4a2a17" stroke-width="3" fill="none" stroke-linecap="round"/>
  </g>
  <circle cx="58" cy="171" r="13" fill="#8b4a24" opacity=".85"/>
</g>
  
    <g class="frame frame-7">
  <rect width="256" height="256" rx="22" fill="#f8fafc"/>
  <ellipse cx="128" cy="211" rx="62" ry="12" fill="#263238" opacity=".16"/>
  <g transform="translate(0 0) rotate(-3.778747871771291 128 152)">
    <path d="M186 141 C218 110.39650766162336 220 197.60349233837664 184 168" fill="none" stroke="#d8893d" stroke-width="18" stroke-linecap="round"/>
    <path d="M187 141 C219 110.39650766162336 221 197.60349233837664 185 168" fill="none" stroke="#4a2a17" stroke-width="5" stroke-linecap="round" opacity=".75"/>
    <ellipse cx="126" cy="152" rx="62" ry="47" fill="#d8893d" stroke="#4a2a17" stroke-width="5"/>
    <path d="M100 86 q22 12 46 0" stroke="#8b4a24" stroke-width="5" fill="none" opacity=".55"/>
       <path d="M89 137 q36 18 75 0" stroke="#8b4a24" stroke-width="7" fill="none" opacity=".45"/>
    <g transform="translate(-12.09199318966813 -18.045996594834065) rotate(-18.137989784502196 108 178)">
      <ellipse cx="108" cy="178" rx="13" ry="24" fill="#d8893d" stroke="#4a2a17" stroke-width="4"/>
    </g>
    <g transform="translate(12.09199318966813 0) rotate(18.137989784502196 151 181)">
      <ellipse cx="151" cy="181" rx="15" ry="23" fill="#d8893d" stroke="#4a2a17" stroke-width="4"/>
    </g>
  </g>
  <g transform="translate(-3.778747871771291 0) rotate(0 126 91)">
    <path d="M94 63 L105 22 L123 65 Z" fill="#d8893d" stroke="#4a2a17" stroke-width="5"/>
    <path d="M150 64 L171 24 L173 71 Z" fill="#d8893d" stroke="#4a2a17" stroke-width="5"/>
    <circle cx="126" cy="91" r="42" fill="#d8893d" stroke="#4a2a17" stroke-width="5"/>
    <ellipse cx="128" cy="110" rx="23" ry="15" fill="#8b4a24" opacity=".92"/>
    <ellipse cx="116" cy="88" rx="5" ry="6" fill="#5f7f35"/><ellipse cx="145" cy="88" rx="5" ry="6" fill="#5f7f35"/>
    <path d="M127 100 l-6 6 h12z" fill="#4a2a17"/>
    <path d="M121 113 q8 7 16 0" stroke="#4a2a17" stroke-width="3" fill="none" stroke-linecap="round"/>
  </g>
  <circle cx="58" cy="171" r="13" fill="#8b4a24" opacity=".85"/>
</g>
  
</svg>
