<svg xmlns="http://www.w3.org/2000/svg" width="760" height="340" viewBox="0 0 760 340"><rect width="760" height="340" fill="#f8f6f0"/><text x="24" y="30" font-family="Arial" font-size="18" fill="#222">v36_silver_tabby_public_v34_character_asset_v35_route_a2_uplift_pack V36 Route A2 evidence</text><g><rect x="24" y="56" width="140" height="90" rx="8" fill="#f4a261" opacity="0.92"/><circle cx="94" cy="94" r="24" fill="#fff7e6"/><path d="M70 84 l12 -18 l10 20" fill="#fff7e6"/><path d="M106 84 l12 -18 l10 20" fill="#fff7e6"/><path d="M70 122 q18 20.666666666666668 48 0" stroke="#2f2f2f" stroke-width="4" fill="none"/><text x="24" y="170" font-family="Arial" font-size="13" fill="#222">idle motion 62</text></g><g><rect x="204" y="56" width="140" height="90" rx="8" fill="#8ecae6" opacity="0.92"/><circle cx="274" cy="94" r="24" fill="#fff7e6"/><path d="M250 84 l12 -18 l10 20" fill="#fff7e6"/><path d="M286 84 l12 -18 l10 20" fill="#fff7e6"/><path d="M250 122 q20 28.666666666666668 48 0" stroke="#2f2f2f" stroke-width="4" fill="none"/><text x="204" y="170" font-family="Arial" font-size="13" fill="#222">walk motion 86</text></g><g><rect x="384" y="56" width="140" height="90" rx="8" fill="#e76f51" opacity="0.92"/><circle cx="454" cy="94" r="24" fill="#fff7e6"/><path d="M430 84 l12 -18 l10 20" fill="#fff7e6"/><path d="M466 84 l12 -18 l10 20" fill="#fff7e6"/><path d="M430 122 q22 29.333333333333332 48 0" stroke="#2f2f2f" stroke-width="4" fill="none"/><text x="384" y="170" font-family="Arial" font-size="13" fill="#222">jump motion 88</text></g><g><rect x="564" y="56" width="140" height="90" rx="8" fill="#90be6d" opacity="0.92"/><circle cx="634" cy="94" r="24" fill="#fff7e6"/><path d="M610 84 l12 -18 l10 20" fill="#fff7e6"/><path d="M646 84 l12 -18 l10 20" fill="#fff7e6"/><path d="M610 122 q24 20.666666666666668 48 0" stroke="#2f2f2f" stroke-width="4" fill="none"/><text x="564" y="170" font-family="Arial" font-size="13" fill="#222">sleep motion 62</text></g><g><rect x="24" y="182" width="140" height="90" rx="8" fill="#f4a261" opacity="0.92"/><circle cx="94" cy="220" r="24" fill="#fff7e6"/><path d="M70 210 l12 -18 l10 20" fill="#fff7e6"/><path d="M106 210 l12 -18 l10 20" fill="#fff7e6"/><path d="M70 248 q26 26 48 0" stroke="#2f2f2f" stroke-width="4" fill="none"/><text x="24" y="296" font-family="Arial" font-size="13" fill="#222">eat motion 78</text></g><g><rect x="204" y="182" width="140" height="90" rx="8" fill="#8ecae6" opacity="0.92"/><circle cx="274" cy="220" r="24" fill="#fff7e6"/><path d="M250 210 l12 -18 l10 20" fill="#fff7e6"/><path d="M286 210 l12 -18 l10 20" fill="#fff7e6"/><path d="M250 248 q28 30 48 0" stroke="#2f2f2f" stroke-width="4" fill="none"/><text x="204" y="296" font-family="Arial" font-size="13" fill="#222">play motion 90</text></g><g><rect x="384" y="182" width="140" height="90" rx="8" fill="#e76f51" opacity="0.92"/><circle cx="454" cy="220" r="24" fill="#fff7e6"/><path d="M430 210 l12 -18 l10 20" fill="#fff7e6"/><path d="M466 210 l12 -18 l10 20" fill="#fff7e6"/><path d="M430 248 q30 26.666666666666668 48 0" stroke="#2f2f2f" stroke-width="4" fill="none"/><text x="384" y="296" font-family="Arial" font-size="13" fill="#222">alert motion 80</text></g><g><rect x="564" y="182" width="140" height="90" rx="8" fill="#90be6d" opacity="0.92"/><circle cx="634" cy="220" r="24" fill="#fff7e6"/><path d="M610 210 l12 -18 l10 20" fill="#fff7e6"/><path d="M646 210 l12 -18 l10 20" fill="#fff7e6"/><path d="M610 248 q32 28 48 0" stroke="#2f2f2f" stroke-width="4" fill="none"/><text x="564" y="296" font-family="Arial" font-size="13" fill="#222">celebrate motion 84</text></g></svg>